<?xml version="1.0" encoding="utf-8"?>
<!-- Generator: Adobe Illustrator 23.0.2, SVG Export Plug-In . SVG Version: 6.00 Build 0)  -->
<svg version="1.1" xmlns="http://www.w3.org/2000/svg" xmlns:xlink="http://www.w3.org/1999/xlink" x="0px" y="0px"
	 viewBox="0 0 1024 1024" style="enable-background:new 0 0 1024 1024;" xml:space="preserve">
<style type="text/css">
	.st0{display:none;}
	.st1{display:inline;fill:#4F4CA0;stroke:url(#SVGID_1_);stroke-miterlimit:10;}
	.st2{fill:#FFFFFF;}
</style>
<g id="Layer_2" class="st0">
	
		<radialGradient id="SVGID_1_" cx="514.0645" cy="525.2783" r="504.5" gradientTransform="matrix(1.0159 0 0 1.0159 -10.2243 -21.616)" gradientUnits="userSpaceOnUse">
		<stop  offset="0" style="stop-color:#FFFFFF"/>
		<stop  offset="1" style="stop-color:#000000"/>
	</radialGradient>
	<rect x="0" y="0" class="st1" width="1024" height="1024"/>
</g>
<g id="Layer_1">
	<g>
		<path class="st2" d="M514,0C231.2,0,2,229.2,2,512s229.2,512,512,512s512-229.2,512-512S796.8,0,514,0z M709.2,727.9
			c-41.6,9.7-118.3,14.2-195.2,14.2c-76.9-0.1-153.5-4.5-195.2-14.2c-26.9-27.4-21.6-139-22-188.8c0-9.6,0.1-16.5,0.1-24.9v-0.1
			c0.4-16.5,1.3-39.2,3.6-62.9c1.6,0.6,3.7,1.1,5.6,1.1c0.1,0,0.1,0,0.1,0c16.2,0,30.9-6.4,41.6-16.9c3.9-3.8,7.6-7.9,10.3-12.6
			c2.7,4.7,5.6,8.8,9.5,12.6c10.7,10.5,25.4,17,41.6,17c0.1,0,0.1,0,0.1,0c16.1,0,30.8-6.4,41.5-16.9c3.9-3.7,7.2-7.9,10-12.8
			l0.2-0.1c2.6,4.7,5.9,8.9,9.7,12.6c10.7,10.5,25.4,17,41.6,17c0.1,0,0.1,0,0.1,0c0.6,0,1.1,0,1.7,0c0.6,0,1.1,0,1.7,0
			c0.1,0,0.1,0,0.1,0c16.2,0,30.9-6.5,41.6-17c3.8-3.7,7.1-7.9,9.9-12.8l0.1,0.3c2.7,4.7,6,8.9,9.8,12.6c10.7,10.5,25.3,17,41.5,17
			c0.1,0,0.1,0,0.1,0c16.2,0,30.9-6.5,41.6-17c3.8-3.8,6.8-7.9,9.5-12.6c2.7,4.7,6.4,8.8,10.3,12.6c10.7,10.5,25.4,17,41.6,17
			c1.9,0,4-0.5,5.6-1.1c2.3,23.7,3.3,46.4,3.6,62.9v0.1c0,8.4,0.1,15.3,0.1,24.9C730.7,588.9,736.1,700.5,709.2,727.9z M770,383.7
			c0,27.9-26,52.3-49.6,52.3c-28.4,0-52-23.5-52-51.4c0,27.9-22.8,51.4-51.2,51.4c-28.3,0-50.4-23.5-50.4-51.4
			c0,27.9-24.2,51.4-52.6,51.4h-0.5c-28.3,0-52.6-23.5-52.6-51.4c0,27.9-22,51.4-50.4,51.4s-51.2-23.5-51.2-51.4
			c0,27.9-23.6,51.4-52,51.4c-23.6,0-49.6-24.5-49.6-52.3v-22c0.5-13.3,44.5-63.8,66.8-77.1c19.8-1.7,117.5-2.7,189.2-2.8
			c71.7-0.1,119.9,0.4,189.3,2.8c22.4,13.3,66.4,63.9,66.8,77.1V383.7z"/>
		<path class="st2" d="M672.2,540.6C649.9,478,617.9,478,609.9,478c-16.9,0.1-31.9,0-50.7,20.4c-14.6-1.6-30-2.3-45.3-2.3
			s-30.6,0.8-45.3,2.3C450,478,435,478.1,418,478v0c-8,0-40,0-62.2,62.7l-24,85.9c-17.8,63.9,5.7,65.4,34.9,65.5
			C410,690.4,434,659,434,627.5c24,3.9,52,5.9,80,5.9s56-2,80-5.9c0,31.5,24,62.9,67.2,64.5c29.2,0,52.7-1.6,34.9-65.5L672.2,540.6z
			 M538,582.8v26c0,1.2-12,0.8-24,0.2c-12,0.5-24,1-24-0.2v-26l-29.8,1.2c8.2-14.9,53.8-56.7,53.8-56.8c0,0.1,45.6,42,53.8,56.8
			L538,582.8z"/>
	</g>
</g>
</svg>
